<?xml version="1.0" encoding="UTF-8" standalone="no"?>
<!DOCTYPE svg PUBLIC "-//W3C//DTD SVG 1.1//EN" "http://www.w3.org/Graphics/SVG/1.1/DTD/svg11.dtd">
<svg version="1.1" xmlns="http://www.w3.org/2000/svg" xmlns:xlink="http://www.w3.org/1999/xlink" preserveAspectRatio="xMidYMid meet" viewBox="1884.812865710292 4441.846119013505 292.55463159593637 364.20893579113454" width="285.55" height="357.21"><defs><path d="M2091.64 4499.86C2091.64 4525.83 2091.64 4542.05 2091.64 4548.55C2091.64 4556.9 2099.45 4563.05 2107.57 4561.1C2122.66 4557.47 2135.94 4560.78 2147.43 4571.01C2171.75 4592.69 2175.59 4614.8 2173.3 4648.1C2171 4681.39 2171.75 4694.79 2147.43 4720.48C2133.95 4734.71 2118.82 4743.71 2102.03 4747.48C2095.96 4748.84 2091.64 4754.24 2091.64 4760.46C2091.64 4768.88 2091.64 4775.93 2091.64 4782.46C2091.64 4793.56 2082.64 4802.56 2071.55 4802.56C2037.69 4802.56 1961.41 4802.56 1928.85 4802.56C1914.17 4802.56 1902.26 4790.65 1902.26 4775.96C1902.26 4741.16 1902.26 4654.15 1902.26 4514.95" id="a1SqMsLUV3"></path><path d="M1988.24 4583.92C1986.12 4583.79 1983.37 4582.79 1979.98 4580.91C1977.5 4579.53 1975.94 4576.93 1975.88 4574.09C1975.33 4546.79 1974.14 4530.24 1972.29 4524.46C1969.26 4514.99 1953.57 4525.51 1938.66 4518.5C1932.55 4515.64 1929.28 4513.88 1928.83 4513.24C1926.59 4510.01 1922.41 4508.77 1918.77 4510.25C1910.87 4513.46 1904.76 4514.49 1900.43 4513.34C1896.78 4512.38 1893.08 4507.56 1889.35 4498.88C1886.83 4493.03 1889.03 4486.21 1894.5 4482.93C1898.46 4480.56 1901.84 4479.04 1904.64 4478.37C1910.26 4477.02 1914.93 4477.76 1918.65 4480.57C1922.85 4475.01 1925.48 4471.54 1926.53 4470.15C1932.92 4461.71 1943.26 4457.23 1953.78 4458.34C1955.84 4458.56 1960.99 4459.1 1969.22 4459.97C1975.03 4455.92 1978.67 4453.39 1980.12 4452.38C1992.95 4443.44 2009.87 4442.99 2023.16 4451.22C2025.05 4452.39 2029.76 4455.3 2037.29 4459.97C2039.54 4459.56 2040.95 4459.3 2041.51 4459.2C2050.78 4457.52 2060.33 4459.96 2067.66 4465.9C2067.99 4466.16 2068.82 4466.84 2070.15 4467.91C2079.18 4465.87 2085.85 4465.4 2090.18 4466.49C2098.43 4468.58 2104.24 4471.21 2104.37 4484.49C2104.46 4493.35 2095.63 4499.77 2077.89 4503.75C2070.68 4513.74 2063.42 4519.23 2056.12 4520.24C2048.81 4521.24 2038.41 4519.6 2024.89 4515.33C2022.52 4516.37 2021.04 4517.03 2020.44 4517.29C2020.44 4517.29 2012 4520.92 2012 4520.92C2010.31 4521.63 2011.71 4521.04 2010.58 4521.52C2006.32 4523.3 2003.55 4527.46 2003.55 4532.08C2003.55 4541.4 2003.55 4561.19 2003.55 4570.37C2003.55 4575.4 2000.52 4579.94 1995.88 4581.87C1992.35 4583.34 1989.8 4584.02 1988.24 4583.92Z" id="b1tXqgCF2m"></path><path d="M1941.29 4727.81L1941.29 4572.14" id="bFc8SUHnv"></path><path d="M1993.32 4727.81L1993.32 4616.02" id="a161ZomRJZ"></path><path d="M2045.59 4732.71L2045.59 4577.03" id="e1hGRnpbuK"></path><path d="M2128.12 4698.91C2140.61 4682.51 2140.89 4662.37 2142.77 4646.38C2144.64 4630.39 2142.48 4605.04 2130 4595.76C2125.21 4592.2 2115.95 4588.98 2108.97 4593.28C2103.82 4596.46 2098.06 4601.79 2091.7 4609.27C2091.7 4662.06 2091.7 4695.06 2091.7 4708.26C2091.7 4711.93 2094.88 4714.8 2098.53 4714.43C2111.37 4713.13 2121.23 4707.96 2128.12 4698.91Z" id="e1u8r0nkVW"></path></defs><g><g><g><use xlink:href="#a1SqMsLUV3" opacity="1" fill-opacity="0" stroke="#ffffff" stroke-width="7" stroke-opacity="1"></use></g></g><g><g><use xlink:href="#b1tXqgCF2m" opacity="1" fill-opacity="0" stroke="#ffffff" stroke-width="7" stroke-opacity="1"></use></g></g><g><g><use xlink:href="#bFc8SUHnv" opacity="1" fill-opacity="0" stroke="#ffffff" stroke-width="5" stroke-opacity="1"></use></g></g><g><g><use xlink:href="#a161ZomRJZ" opacity="1" fill-opacity="0" stroke="#ffffff" stroke-width="5" stroke-opacity="1"></use></g></g><g><g><use xlink:href="#e1hGRnpbuK" opacity="1" fill-opacity="0" stroke="#ffffff" stroke-width="5" stroke-opacity="1"></use></g></g><g><g><use xlink:href="#e1u8r0nkVW" opacity="1" fill-opacity="0" stroke="#ffffff" stroke-width="7" stroke-opacity="1"></use></g></g></g></svg>