<?xml version="1.0" encoding="UTF-8" standalone="no"?>
<!DOCTYPE svg PUBLIC "-//W3C//DTD SVG 1.1//EN" "http://www.w3.org/Graphics/SVG/1.1/DTD/svg11.dtd">
<svg version="1.1" xmlns="http://www.w3.org/2000/svg" xmlns:xlink="http://www.w3.org/1999/xlink" preserveAspectRatio="xMidYMid meet" viewBox="609.6108001170097 4371.720163250443 194.7764120417752 360.52612981281345" width="189.01" height="353.53"><defs><path d="M673.35 4584.7C702.94 4566.22 728.29 4546.57 749.38 4525.74C770.47 4504.9 787.31 4482.89 799.89 4459.7" id="a18fcfZ5vT"></path><path d="M612.11 4611.92C619.75 4610.57 627.18 4607.91 634.41 4603.93C645.26 4597.97 649.04 4595.11 653.91 4592.18" id="j22j3MRyUc"></path><path d="M613.11 4676.68C648.31 4665.88 681.58 4646.79 712.91 4619.41C744.25 4592.04 773.65 4555.46 801.12 4509.68" id="glctGCdy9"></path><path d="M672.84 4384.17L679.84 4376.81C686.71 4374.01 693.28 4374.91 699.55 4379.5C705.82 4384.1 709.01 4389.95 709.11 4397.06C735.9 4397.06 752.64 4397.06 759.34 4397.06C782.28 4397.06 800.89 4415.67 800.89 4438.61C800.89 4496.64 800.89 4629.36 800.89 4687.43C800.89 4710.25 782.39 4728.75 759.57 4728.75C730.61 4728.75 683.51 4728.75 654.17 4728.75C632.37 4728.75 614.66 4711.14 614.53 4689.33C614.2 4630.88 613.44 4496.25 613.11 4438.13C612.98 4415.49 631.3 4397.06 653.94 4397.06C654.81 4397.06 656.97 4397.06 660.42 4397.06L672.84 4384.17Z" id="gTsBULdBq"></path><path d="M692.91 4415.18C695.42 4414.46 698.1 4412.62 700.95 4409.64C703.8 4406.66 706.82 4402.55 710 4397.31" id="aM0Bepe9P"></path></defs><g><g><g><use xlink:href="#a18fcfZ5vT" opacity="1" fill-opacity="0" stroke="#ffffff" stroke-width="5" stroke-opacity="1"></use></g></g><g><g><use xlink:href="#j22j3MRyUc" opacity="1" fill-opacity="0" stroke="#ffffff" stroke-width="5" stroke-opacity="1"></use></g></g><g><g><use xlink:href="#glctGCdy9" opacity="1" fill-opacity="0" stroke="#ffffff" stroke-width="5" stroke-opacity="1"></use></g></g><g><g><use xlink:href="#gTsBULdBq" opacity="1" fill-opacity="0" stroke="#ffffff" stroke-width="7" stroke-opacity="1"></use></g></g><g><g><use xlink:href="#aM0Bepe9P" opacity="1" fill-opacity="0" stroke="#ffffff" stroke-width="5" stroke-opacity="1"></use></g></g></g></svg>