<?xml version="1.0" encoding="UTF-8" standalone="no"?>
<!DOCTYPE svg PUBLIC "-//W3C//DTD SVG 1.1//EN" "http://www.w3.org/Graphics/SVG/1.1/DTD/svg11.dtd">
<svg version="1.1" xmlns="http://www.w3.org/2000/svg" xmlns:xlink="http://www.w3.org/1999/xlink" preserveAspectRatio="xMidYMid meet" viewBox="1287.5803007741279 4393.559054591214 210.2477751124875 360.69531659624863" width="206.75" height="357.2"><defs><path d="M1383.33 4564.24C1385.32 4567.69 1390.26 4567.83 1392.43 4564.48C1396.21 4558.67 1400.1 4552.67 1403.21 4547.89C1406.66 4542.57 1402.77 4535.54 1396.43 4535.65C1390.57 4535.76 1384.66 4535.86 1378 4535.98C1373.13 4536.06 1370.14 4541.34 1372.57 4545.55C1375.59 4550.8 1380.1 4558.63 1383.33 4564.24Z" id="awGIvpuXz"></path><path d="M1392.73 4749.74C1419.88 4749.27 1436.84 4748.97 1443.63 4748.85C1446.99 4748.79 1449.66 4746.02 1449.6 4742.66C1449.58 4741.14 1449.61 4743.17 1449.59 4741.78C1449.52 4737.94 1446.56 4734.77 1442.73 4734.44C1435.08 4733.79 1420.97 4732.59 1413.85 4731.98C1408.07 4731.49 1403.03 4727.88 1400.71 4722.57C1398.92 4718.46 1397.14 4706.9 1395.37 4687.86C1393.38 4666.4 1393.9 4634.06 1396.94 4590.85C1397.5 4582.89 1400.18 4575.22 1404.71 4568.64C1420.64 4545.48 1461.39 4486.27 1477.29 4463.17C1479.94 4459.31 1476.65 4454.17 1472.04 4454.96C1438.85 4460.65 1409.88 4463.71 1385.13 4464.14C1360.16 4464.58 1330.66 4462.97 1296.61 4459.31C1292.22 4458.84 1289.43 4463.88 1292.16 4467.35C1309.45 4489.34 1353.38 4545.23 1370.51 4567.03C1375.78 4573.72 1378.9 4581.84 1379.49 4590.33C1382.57 4634.53 1383.86 4667.11 1383.38 4688.07C1382.95 4707.04 1381.61 4718.88 1379.37 4723.6C1376.99 4728.63 1372.17 4732.07 1366.64 4732.7C1358.87 4733.59 1343.34 4735.36 1335.3 4736.28C1331.02 4736.77 1327.81 4740.43 1327.89 4744.73C1327.91 4745.96 1327.85 4742.8 1327.88 4744.21C1327.94 4747.89 1330.98 4750.82 1334.65 4750.75C1342.4 4750.62 1361.76 4750.28 1392.73 4749.74Z" id="c3kS7WaPrz"></path><path d="M1426.68 4474.26L1389.16 4525.09L1385.76 4525.15L1423.93 4472.76" id="c2HR8wgEur"></path><path d="M1497.83 4396.99L1457.94 4442.84C1465.02 4454.32 1465.48 4462.57 1459.35 4467.58C1450.14 4475.1 1430.66 4479.77 1419.84 4472.93C1409.02 4466.09 1407.28 4448.58 1416.07 4440.23C1421.94 4434.67 1434.92 4434.44 1455.03 4439.55L1491.91 4393.56L1497.83 4396.99Z" id="a357KD2nXZ"></path></defs><g><g><g><use xlink:href="#awGIvpuXz" opacity="1" fill-opacity="0" stroke="#ffffff" stroke-width="4" stroke-opacity="1"></use></g></g><g><g><use xlink:href="#c3kS7WaPrz" opacity="1" fill-opacity="0" stroke="#ffffff" stroke-width="7" stroke-opacity="1"></use></g></g><g><g><use xlink:href="#c2HR8wgEur" opacity="1" fill-opacity="0" stroke="#ffffff" stroke-width="5" stroke-opacity="1"></use></g></g><g><g><g><use xlink:href="#c3kS7WaPrz" opacity="1" fill-opacity="0" stroke="#ffffff" stroke-width="7" stroke-opacity="1"></use></g></g><g><g><use xlink:href="#a357KD2nXZ" opacity="1" fill-opacity="0" stroke="#ffffff" stroke-width="5" stroke-opacity="1"></use></g></g><g><g><use xlink:href="#c2HR8wgEur" opacity="1" fill-opacity="0" stroke="#ffffff" stroke-width="5" stroke-opacity="1"></use></g></g><g><g><use xlink:href="#awGIvpuXz" opacity="1" fill-opacity="0" stroke="#ffffff" stroke-width="4" stroke-opacity="1"></use></g></g></g></g></svg>