<?xml version="1.0" encoding="UTF-8" standalone="no"?>
<!DOCTYPE svg PUBLIC "-//W3C//DTD SVG 1.1//EN" "http://www.w3.org/Graphics/SVG/1.1/DTD/svg11.dtd">
<svg version="1.1" xmlns="http://www.w3.org/2000/svg" xmlns:xlink="http://www.w3.org/1999/xlink" preserveAspectRatio="xMidYMid meet" viewBox="134.09685039369992 578.1478797175699 602.5 850.5000000000001" width="598" height="846"><defs><path d="M705.05 579.65C720.81 579.65 733.6 592.43 733.6 608.2C733.6 771.69 733.6 1233.61 733.6 1397.1C733.6 1412.87 720.81 1425.65 705.05 1425.65C591.16 1425.65 278.04 1425.65 164.15 1425.65C148.38 1425.65 135.6 1412.87 135.6 1397.1C135.6 1233.61 135.6 771.69 135.6 608.2C135.6 592.43 148.38 579.65 164.15 579.65C278.04 579.65 591.16 579.65 705.05 579.65Z" id="hnjccthl7"></path><path d="M314.57 1140.51C304.82 1280.32 298.73 1367.71 296.29 1402.67C295.66 1411.75 288.11 1418.79 279.01 1418.79C255.85 1418.79 201.21 1418.79 177.72 1418.79C169.54 1418.79 162.72 1412.52 162.04 1404.37C159.1 1369.18 151.74 1281.23 139.97 1140.51C141.19 1140.59 141.96 1140.65 142.27 1140.67C199.63 1144.82 257.21 1144.77 314.57 1140.51C314.57 1140.51 314.57 1140.51 314.57 1140.51Z" id="c2tVUjbUNl"></path><path d="M229.7 1409.92C243.47 1409.33 256.08 1408.54 267.55 1407.55C277.34 1406.7 285.07 1398.87 285.78 1389.07C286.99 1372.49 289.71 1334.93 291.01 1317.14C291.35 1312.42 286.33 1309.2 282.19 1311.47C264.42 1321.19 246.92 1326.05 229.7 1326.05C213.36 1326.05 196.05 1321.54 177.79 1312.51C172.2 1309.75 165.74 1314.16 166.28 1320.37C167.79 1337.51 170.76 1371.47 172.19 1387.78C173.13 1398.47 181.36 1407.07 192 1408.47C203.72 1410.01 216.29 1410.49 229.7 1409.92Z" id="bljwaTAm0"></path><path d="M526.03 1140.51C516.28 1280.32 510.19 1367.71 507.75 1402.67C507.12 1411.75 499.57 1418.79 490.47 1418.79C467.32 1418.79 412.67 1418.79 389.18 1418.79C381 1418.79 374.19 1412.52 373.5 1404.37C370.56 1369.18 363.2 1281.23 351.43 1140.51C352.66 1140.59 353.42 1140.65 353.73 1140.67C411.09 1144.82 468.68 1144.77 526.03 1140.51C526.03 1140.51 526.03 1140.51 526.03 1140.51Z" id="b2zTKbzzm1"></path><path d="M441.17 1410.92C454.93 1410.33 467.55 1409.54 479.02 1408.55C488.81 1407.7 496.53 1399.87 497.24 1390.07C498.45 1373.49 501.18 1335.93 502.47 1318.14C502.81 1313.42 497.8 1310.2 493.65 1312.47C475.88 1322.19 458.39 1327.05 441.17 1327.05C424.82 1327.05 407.51 1322.54 389.25 1313.51C383.66 1310.75 377.2 1315.16 377.75 1321.37C379.25 1338.51 382.22 1372.47 383.65 1388.78C384.59 1399.47 392.83 1408.07 403.47 1409.47C415.19 1411.01 427.75 1411.49 441.17 1410.92Z" id="b2OqDcOudb"></path><path d="M418.6 862.22C408.85 1002.04 402.76 1089.43 400.32 1124.38C399.69 1133.46 392.14 1140.51 383.04 1140.51C359.89 1140.51 305.24 1140.51 281.75 1140.51C273.57 1140.51 266.75 1134.24 266.07 1126.08C263.13 1090.9 255.77 1002.95 244 862.22C245.22 862.31 245.99 862.37 246.3 862.39C303.66 866.54 361.24 866.48 418.6 862.22C418.6 862.22 418.6 862.22 418.6 862.22Z" id="b2FNVQz045"></path><path d="M333.73 1130.64C347.5 1130.05 360.11 1129.26 371.58 1128.26C381.37 1127.42 389.1 1119.58 389.81 1109.78C391.02 1093.21 393.75 1055.64 395.04 1037.85C395.38 1033.14 390.37 1029.92 386.22 1032.19C368.45 1041.91 350.95 1046.77 333.73 1046.77C317.39 1046.77 300.08 1042.26 281.82 1033.23C276.23 1030.46 269.77 1034.88 270.32 1041.09C271.82 1058.23 274.79 1092.18 276.22 1108.5C277.16 1119.19 285.4 1127.79 296.03 1129.19C307.75 1130.73 320.32 1131.21 333.73 1130.64Z" id="d9xyhEHr8"></path><path d="M726.32 1140.51C716.58 1280.32 710.49 1367.71 708.05 1402.67C707.42 1411.75 699.87 1418.79 690.76 1418.79C667.61 1418.79 612.97 1418.79 589.48 1418.79C581.3 1418.79 574.48 1412.52 573.8 1404.37C570.86 1369.18 563.5 1281.23 551.73 1140.51C552.95 1140.59 553.72 1140.65 554.02 1140.67C611.39 1144.82 668.97 1144.77 726.32 1140.51C726.32 1140.51 726.32 1140.51 726.32 1140.51Z" id="fb16bZ41p"></path><path d="M642.46 1409.92C656.22 1409.33 668.84 1408.54 680.31 1407.55C690.1 1406.7 697.83 1398.87 698.54 1389.07C699.74 1372.49 702.47 1334.93 703.77 1317.14C704.11 1312.42 699.09 1309.2 694.95 1311.47C677.18 1321.19 659.68 1326.05 642.46 1326.05C626.11 1326.05 608.81 1321.54 590.55 1312.51C584.96 1309.75 578.5 1314.16 579.04 1320.37C580.54 1337.51 583.52 1371.47 584.95 1387.78C585.88 1398.47 594.12 1407.07 604.76 1408.47C616.48 1410.01 629.05 1410.49 642.46 1409.92Z" id="a5FRSJT9Sh"></path><path d="M629.33 862.22C619.58 1002.04 613.49 1089.43 611.05 1124.38C610.42 1133.46 602.87 1140.51 593.77 1140.51C570.61 1140.51 515.97 1140.51 492.48 1140.51C484.3 1140.51 477.48 1134.24 476.8 1126.08C473.86 1090.9 466.5 1002.95 454.73 862.22C455.95 862.31 456.72 862.37 457.03 862.39C514.39 866.54 571.97 866.48 629.33 862.22C629.33 862.22 629.33 862.22 629.33 862.22Z" id="aLb6lC97k"></path><path d="M544.33 1130.64C558.1 1130.05 570.71 1129.26 582.18 1128.26C591.97 1127.42 599.7 1119.58 600.41 1109.78C601.62 1093.21 604.34 1055.64 605.64 1037.85C605.98 1033.14 600.97 1029.92 596.82 1032.19C579.05 1041.91 561.55 1046.77 544.33 1046.77C527.99 1046.77 510.68 1042.26 492.42 1033.23C486.83 1030.46 480.37 1034.88 480.91 1041.09C482.42 1058.23 485.39 1092.18 486.82 1108.5C487.76 1119.19 495.99 1127.79 506.63 1129.19C518.35 1130.73 530.92 1131.21 544.33 1130.64Z" id="c1WkStXLu"></path><path d="M520.45 583.94C510.7 723.76 504.61 811.15 502.17 846.1C501.54 855.18 493.99 862.22 484.89 862.22C461.73 862.22 407.09 862.22 383.6 862.22C375.42 862.22 368.6 855.95 367.92 847.8C364.98 812.62 357.62 724.66 345.85 583.94C347.07 584.03 347.84 584.08 348.15 584.11C405.51 588.26 463.09 588.2 520.45 583.94C520.45 583.94 520.45 583.94 520.45 583.94Z" id="aSFw8WmgQ"></path><path d="M434.21 852.32C447.97 851.73 460.59 850.94 472.06 849.95C481.85 849.1 489.58 841.27 490.29 831.47C491.49 814.9 494.22 777.33 495.52 759.54C495.86 754.83 490.84 751.6 486.7 753.87C468.93 763.6 451.43 768.46 434.21 768.46C417.86 768.46 400.56 763.94 382.3 754.91C376.71 752.15 370.25 756.57 370.79 762.78C372.29 779.92 375.27 813.87 376.7 830.18C377.63 840.87 385.87 849.48 396.51 850.87C408.23 852.41 420.8 852.9 434.21 852.32Z" id="i18bvg9L7B"></path></defs><g><g><use xlink:href="#hnjccthl7" opacity="1" fill="#00ffda" fill-opacity="0"></use></g><g><g><g><g><use xlink:href="#c2tVUjbUNl" opacity="1" fill-opacity="0" stroke="#ffffff" stroke-width="7" stroke-opacity="1"></use></g></g><g><g><use xlink:href="#bljwaTAm0" opacity="1" fill-opacity="0" stroke="#ffffff" stroke-width="5" stroke-opacity="1"></use></g></g></g><g><g><g><use xlink:href="#b2zTKbzzm1" opacity="1" fill-opacity="0" stroke="#ffffff" stroke-width="7" stroke-opacity="1"></use></g></g><g><g><use xlink:href="#b2OqDcOudb" opacity="1" fill-opacity="0" stroke="#ffffff" stroke-width="5" stroke-opacity="1"></use></g></g></g><g><g><g><use xlink:href="#b2FNVQz045" opacity="1" fill-opacity="0" stroke="#ffffff" stroke-width="7" stroke-opacity="1"></use></g></g><g><g><use xlink:href="#d9xyhEHr8" opacity="1" fill-opacity="0" stroke="#ffffff" stroke-width="5" stroke-opacity="1"></use></g></g></g><g><g><g><use xlink:href="#fb16bZ41p" opacity="1" fill-opacity="0" stroke="#ffffff" stroke-width="7" stroke-opacity="1"></use></g></g><g><g><use xlink:href="#a5FRSJT9Sh" opacity="1" fill-opacity="0" stroke="#ffffff" stroke-width="5" stroke-opacity="1"></use></g></g></g><g><g><g><use xlink:href="#aLb6lC97k" opacity="1" fill-opacity="0" stroke="#ffffff" stroke-width="7" stroke-opacity="1"></use></g></g><g><g><use xlink:href="#c1WkStXLu" opacity="1" fill-opacity="0" stroke="#ffffff" stroke-width="5" stroke-opacity="1"></use></g></g></g><g><g><g><use xlink:href="#aSFw8WmgQ" opacity="1" fill-opacity="0" stroke="#ffffff" stroke-width="7" stroke-opacity="1"></use></g></g><g><g><use xlink:href="#i18bvg9L7B" opacity="1" fill-opacity="0" stroke="#ffffff" stroke-width="5" stroke-opacity="1"></use></g></g></g></g></g></svg>