<?xml version="1.0" encoding="UTF-8" standalone="no"?>
<!DOCTYPE svg PUBLIC "-//W3C//DTD SVG 1.1//EN" "http://www.w3.org/Graphics/SVG/1.1/DTD/svg11.dtd">
<svg version="1.1" xmlns="http://www.w3.org/2000/svg" xmlns:xlink="http://www.w3.org/1999/xlink" preserveAspectRatio="xMidYMid meet" viewBox="2535.230746228547 4457.3862526641815 146.87544594838164 344.7410334354845" width="139.88" height="337.74"><defs><path d="M2606.39 4617.02C2608.24 4618.61 2610.94 4618.74 2612.93 4617.33C2617.11 4614.38 2624.32 4609.29 2628.01 4606.68C2629.81 4605.41 2628.91 4602.58 2626.71 4602.58C2619.29 4602.58 2602.61 4602.58 2594.8 4602.58C2593.03 4602.58 2592.21 4604.79 2593.55 4605.95C2596.75 4608.71 2603.04 4614.13 2606.39 4617.02Z" id="b17JBcxTi2"></path><path d="M2668.75 4556.5C2659.64 4545.85 2648.37 4540.93 2634.95 4541.75C2614.83 4542.98 2609.3 4560.95 2588.25 4561.41C2574.22 4561.72 2561.72 4555.78 2550.76 4543.59" id="f1jh7fL4rY"></path><path d="M2654.33 4491.58C2653.34 4488.05 2652.26 4484.79 2651.06 4481.8C2649.87 4478.82 2648.57 4475.58 2647.17 4472.06" id="d1YxT0GRr7"></path><path d="M2661.84 4532.35C2662.07 4527.85 2661.89 4523.27 2661.3 4518.63C2660.71 4513.99 2659.71 4509.28 2658.31 4504.49" id="d1vluJBz9O"></path><path d="M2608.51 4463.51C2594.93 4463.51 2581.42 4462.73 2567.99 4461.16C2562.21 4460.49 2556.73 4463.87 2554.72 4469.33C2539.59 4510.63 2535.2 4544.4 2541.54 4570.63C2547.81 4596.53 2565.3 4616.44 2594.02 4630.37C2598.87 4632.72 2602 4637.59 2602.11 4642.98C2602.57 4664.73 2603.07 4685.47 2603.61 4705.22C2604.08 4722.24 2603.83 4739.16 2602.86 4755.99C2602.31 4765.69 2595.37 4773.85 2585.87 4775.94C2579.47 4777.36 2568.26 4779.83 2559.84 4781.68C2556.33 4782.46 2553.83 4785.57 2553.83 4789.16C2553.83 4791.06 2553.83 4791.03 2553.83 4793.03C2553.83 4796.12 2556.34 4798.63 2559.43 4798.63C2581.42 4798.63 2642.75 4798.63 2664.98 4798.63C2667.41 4798.63 2669.37 4796.66 2669.37 4794.24C2669.37 4792 2669.37 4789.98 2669.37 4787.82C2669.37 4785.02 2667.41 4782.6 2664.66 4782.02C2655.52 4780.1 2642.93 4777.45 2636.32 4776.06C2626.09 4773.9 2618.61 4765.1 2618.15 4754.66C2617.42 4738.28 2617.06 4721.8 2617.06 4705.22C2617.06 4686.81 2617.5 4667.47 2618.37 4647.19C2618.72 4639.13 2623.26 4631.83 2630.33 4627.94C2655.48 4614.14 2670.74 4595.04 2676.13 4570.63C2682.02 4543.92 2677.4 4509.57 2662.26 4467.58C2660.67 4463.15 2656.23 4460.4 2651.55 4460.96C2637.1 4462.66 2622.75 4463.51 2608.51 4463.51Z" id="b3xcIpCSv3"></path></defs><g><g><g><use xlink:href="#b17JBcxTi2" opacity="1" fill-opacity="0" stroke="#ffffff" stroke-width="5" stroke-opacity="1"></use></g></g><g><g><use xlink:href="#f1jh7fL4rY" opacity="1" fill-opacity="0" stroke="#ffffff" stroke-width="5" stroke-opacity="1"></use></g></g><g><g><use xlink:href="#d1YxT0GRr7" opacity="1" fill-opacity="0" stroke="#ffffff" stroke-width="5" stroke-opacity="1"></use></g></g><g><g><use xlink:href="#d1vluJBz9O" opacity="1" fill-opacity="0" stroke="#ffffff" stroke-width="5" stroke-opacity="1"></use></g></g><g><g><use xlink:href="#b3xcIpCSv3" opacity="1" fill-opacity="0" stroke="#ffffff" stroke-width="7" stroke-opacity="1"></use></g></g></g></svg>